<?xml version="1.0" encoding="utf-8"?>
<!-- Generator: Adobe Illustrator 15.1.0, SVG Export Plug-In  -->
<!DOCTYPE svg PUBLIC "-//W3C//DTD SVG 1.1//EN" "http://www.w3.org/Graphics/SVG/1.1/DTD/svg11.dtd" [
	<!ENTITY ns_flows "http://ns.adobe.com/Flows/1.0/">
]>
<svg version="1.1"
	 xmlns="http://www.w3.org/2000/svg" xmlns:xlink="http://www.w3.org/1999/xlink" xmlns:a="http://ns.adobe.com/AdobeSVGViewerExtensions/3.0/"
	 x="0px" y="0px" width="512px" height="512px" viewBox="0 -0.001 512 512" enable-background="new 0 -0.001 512 512"
	 xml:space="preserve">
<defs>
</defs>
<path fill="#E54242" d="M80.25,69.839C-22.544,166.884-27.203,328.884,69.843,431.678c1.704,1.812,3.439,3.594,5.2,5.35
	c99.959,99.964,262.028,99.964,361.981,0c99.964-99.954,99.964-262.023,0-361.981C339.11-22.957,180.992-25.266,80.25,69.839z
	 M129.349,180.021l50.675-50.675l76.017,76.016l76.016-76.016l50.681,50.675l-76.017,76.041l76.021,75.99l-50.682,50.681
	l-76.016-76.021l-76.016,76.021l-50.675-50.681l76.01-75.99L129.349,180.021z"/>
</svg>
